<?xml version="1.0" encoding="UTF-8" standalone="no"?>
<svg
   version="1.1"
   width="1006.76"
   height="221.98"
   viewBox="31.76 292.24 1006.76 221.98"
   xmlns="http://www.w3.org/2000/svg">
  <g
     id="layer-MC0"
     transform="translate(-32787.852)">
<path
       id="path1761"
       d="M 0,0 5.522,-8.152 -99.352,-158.961 h -7.597 z"
       style="fill:#ffffff;fill-opacity:1;fill-rule:evenodd;stroke:none"
       transform="matrix(1.3333333,0,0,-1.3333333,32967.21,297.2404)" />
<path
       id="path1762"
       d="m 0,0 5.494,-7.988 -98.022,-139.581 h -10.109 z"
       style="fill:#ffffff;fill-opacity:1;fill-rule:evenodd;stroke:none"
       transform="matrix(1.3333333,0,0,-1.3333333,32977.565,312.42973)" />
<path
       id="path1763"
       d="m 0,0 5.346,-8.119 -91.669,-128.96 h -9.068 z"
       style="fill:#ffffff;fill-opacity:1;fill-rule:evenodd;stroke:none"
       transform="matrix(1.3333333,0,0,-1.3333333,32988.333,326.41613)" />
<path
       id="path1764"
       d="m 0,0 h -8.955 l 88.201,125.588 5.403,-8.073 z"
       style="fill:#ffffff;fill-opacity:1;fill-rule:evenodd;stroke:none"
       transform="matrix(1.3333333,0,0,-1.3333333,32892.379,509.18827)" />
<path
       id="path1765"
       d="m 0,0 h -9.138 l 81.342,115.401 5.34,-8.125 z"
       style="fill:#ffffff;fill-opacity:1;fill-rule:evenodd;stroke:none"
       transform="matrix(1.3333333,0,0,-1.3333333,32912.236,509.18827)" />
<path
       id="path1766"
       d="m 0,0 h 8.906 l 70.038,96.312 -5.445,8.185 z"
       style="fill:#ffffff;fill-opacity:1;fill-rule:evenodd;stroke:none"
       transform="matrix(1.3333333,0,0,-1.3333333,32920.293,509.18827)" />
<path
       id="path1767"
       d="M 0,0 -0.014,-0.034 0.005,0 0.013,0.007 Z"
       style="fill:#ffffff;fill-opacity:1;fill-rule:nonzero;stroke:none"
       transform="matrix(1.3333333,0,0,-1.3333333,33101.441,375.6872)" />
<path
       id="path1768"
       d="M 0,0 0.038,-0.005 0.017,0.018 Z"
       style="fill:#ffffff;fill-opacity:1;fill-rule:nonzero;stroke:none"
       transform="matrix(1.3333333,0,0,-1.3333333,33097.045,379.6508)" />
<path
       id="path1769"
       d="M 0,0 -0.014,0.003 0.041,-0.03 0.032,0.02 Z"
       style="fill:#ffffff;fill-opacity:1;fill-rule:nonzero;stroke:none"
       transform="matrix(1.3333333,0,0,-1.3333333,33097.329,379.7084)" />
<path
       id="path1770"
       d="M 0,0 0.19,0.196 0.135,0.339 0.148,0.398 0.173,0.434 -0.093,0.436 Z"
       style="fill:#ffffff;fill-opacity:1;fill-rule:nonzero;stroke:none"
       transform="matrix(1.3333333,0,0,-1.3333333,33098.732,380.2856)" />
<path
       id="path1771"
       d="M 0,0 0.187,0.148 Z"
       style="fill:#ffffff;fill-opacity:1;fill-rule:nonzero;stroke:none"
       transform="matrix(1.3333333,0,0,-1.3333333,33015.877,431.3132)" />
<path
       id="path1772"
       d="M 0,0 0.686,0.643 0.77,0.691 1.394,0.945 1.393,0.947 2.068,1.283 2.461,1.561 2.662,1.608 2.773,1.596 2.974,1.477 V 1.269 L 2.813,1.027 3.285,1.448 3.462,1.814 3.459,1.811 3.168,1.781 3.029,2.001 3.085,2.412 3.105,2.478 3.237,2.714 C 3.159,2.702 3.073,2.685 2.981,2.666 2.314,2.253 1.665,1.816 1.038,1.353 L 0.534,0.905 0.532,0.907 0.257,0.608 0.055,0.399 -0.021,0.345 -0.069,0.328 -0.194,0.006 -0.284,-0.101 -0.57,-0.279 -0.533,-0.292 Z"
       style="fill:#ffffff;fill-opacity:1;fill-rule:nonzero;stroke:none"
       transform="matrix(1.3333333,0,0,-1.3333333,33002.826,438.50867)" />
<path
       id="path1773"
       d="M 0,0 0.097,-0.179 0.07,-0.22 0.27,-0.268 0.269,-0.271 0.319,-0.28 0.36,-0.066 0.575,0.119 0.797,0.149 1.199,0.381 1.443,0.778 1.276,0.679 1.22,0.655 0.978,0.584 0.714,0.637 0.681,0.741 0.52,0.625 0.436,0.699 0.305,0.632 0.111,0.405 0.056,0.363 -0.269,0.161 -0.208,0.149 Z"
       style="fill:#ffffff;fill-opacity:1;fill-rule:nonzero;stroke:none"
       transform="matrix(1.3333333,0,0,-1.3333333,33008.418,435.864)" />
<path
       id="path1774"
       d="m 0,0 c 2.488,0.15 3.48,0.518 4.279,0.812 0.596,0.22 1.16,0.429 2.026,0.429 0.558,0 0.983,-0.07 1.327,-0.182 -0.085,0.267 -0.139,0.544 -0.139,0.831 0,1.702 1.507,3.085 3.36,3.085 1.498,0 2.728,-0.916 3.163,-2.159 l 0.07,-0.015 0.222,-0.036 0.159,-0.083 0.271,-0.322 0.118,-0.006 0.097,-0.018 0.294,-0.117 0.114,0.064 0.465,0.012 0.097,-0.012 1.095,-0.322 0.34,-0.083 0.187,-0.245 -0.076,-0.431 C 17.501,1.189 17.535,1.18 17.567,1.167 17.6,1.154 17.643,1.139 17.677,1.125 l 0.006,0.08 0.132,0.178 0.167,0.084 -0.34,0.351 -0.048,0.214 0.194,0.143 0.54,0.114 0.171,-0.052 0.302,0.593 -10e-4,10e-4 0.062,0.19 0.048,0.078 0.139,0.155 0.229,0.077 0.201,-0.119 0.038,-0.066 0.156,0.143 0.118,0.06 0.097,0.024 -0.077,0.143 -0.249,0.256 -0.042,0.22 0.201,0.143 0.721,0.096 0.04,0.015 -0.511,0.252 -0.194,0.036 -0.187,0.137 -0.14,0.315 -0.04,0.025 -0.146,0.095 -0.319,0.387 0.45,0.382 -0.048,0.125 0.291,0.136 0.204,-0.037 -0.01,0.026 0.03,0.013 -0.03,0.004 -0.055,0.012 -0.34,0.119 -0.152,0.227 0.024,0.302 -0.294,0.091 -0.167,0.173 0.015,0.034 -0.299,0.21 -0.083,0.089 -0.152,0.352 h -0.001 l -0.146,0.255 c -0.34,0.041 -0.711,0.153 -0.935,0.561 L 17.24,8.739 17.385,8.864 18.418,9.192 18.64,9.18 19.038,8.979 18.98,9.228 19.061,9.262 19.056,9.389 19.16,9.603 18.744,9.71 18.633,9.77 18.432,9.943 18.154,10.098 h -0.165 l -0.762,0.282 c -2.215,0.537 -4.532,0.825 -6.919,0.825 -2.124,0 -4.191,-0.231 -6.181,-0.658 L 3.945,10.324 3.536,10.241 v 0 L 2.891,10.026 2.663,10.044 2.618,10.109 2.58,10.056 2.503,9.984 2.27,9.858 2.146,9.651 2.191,9.609 1.997,9.46 1.637,9.472 V 9.479 L 0.375,9.115 0.355,9.109 -0.266,8.978 -0.193,8.924 -0.203,8.906 -0.082,8.721 -0.072,8.595 0.333,8.593 0.347,8.596 0.431,8.602 0.847,8.591 1.027,8.525 1.096,8.364 1.02,8.209 0.932,8.181 0.971,8.108 0.832,7.93 0.52,7.792 0.479,7.774 0.355,7.745 0.389,7.709 0.32,7.512 0.049,7.274 -0.242,7.226 H -0.249 L -0.384,7.162 -0.29,7.096 -0.429,6.851 -0.634,6.766 -0.623,6.744 -0.748,6.351 -1.108,6.208 -1.411,6.225 -1.427,6.095 -1.552,5.928 -1.801,5.922 -1.899,5.964 -2.058,5.773 -2.086,5.743 -2.092,5.607 -2.474,5.201 -2.696,4.778 -2.938,4.647 -3.037,4.705 -3.84,4.397 -4.159,4.481 -4.145,4.573 -4.824,3.98 -4.969,3.921 -5.157,3.891 -5.503,3.796 -5.759,3.849 -5.829,4.069 -5.683,4.484 -5.773,4.391 -5.87,4.075 -6.106,3.915 -6.328,3.909 V 3.891 L -6.425,3.736 -6.667,3.587 -6.702,3.51 -6.777,3.427 l 0.373,0.16 h 0.222 L -6.044,3.444 -5.967,3.099 -6.092,2.843 -6.355,2.753 -6.52,2.78 -6.605,2.664 -6.873,2.49 -6.848,2.449 -6.959,2.271 -7.201,2.116 -7.724,1.661 -7.88,1.383 -7.915,1.342 -8.247,0.993 -8.262,0.811 -8.421,0.657 l 0.09,-0.37 -0.118,-0.232 -0.24,-0.119 -0.112,-0.16 0.753,-0.005 C -8.01,-0.233 -4.015,-0.255 0,0"
       style="fill:#ffffff;fill-opacity:1;fill-rule:nonzero;stroke:none"
       transform="matrix(1.3333333,0,0,-1.3333333,33013.435,444.14133)" />
<path
       id="path1775"
       d="M 0,0 -0.05,0.111 -0.243,0.19 -0.244,0.194 -0.263,0.202 -0.374,0.28 -0.527,0.5 l -0.18,0.22 -0.028,0.191 0.354,0.834 0.27,0.161 0.047,-0.029 0.002,0.076 h 0.005 L -0.097,2.424 -0.229,2.412 -0.416,2.46 -0.723,2.677 -0.783,2.651 -1.178,2.645 -1.268,2.656 -1.462,2.713 C -1.764,2.606 -2.023,2.536 -2.246,2.536 c -0.144,0 -0.28,0.024 -0.422,0.076 L -3.059,2.756 -3.266,3.15 C -3.347,3.288 -3.391,3.42 -3.4,3.549 L -3.538,3.626 C -4.449,3.62 -5.354,3.609 -6.239,3.574 v 0 l -0.505,-0.078 -0.097,0.006 -1.11,0.209 -0.04,0.048 c -0.86,0.258 -1.829,0.256 -2.795,0.375 l -0.131,0.053 -1.391,1.089 -0.121,-0.023 h -0.007 l -0.047,0.07 -0.021,-0.016 -0.431,0.429 -0.242,0.256 -0.34,0.214 -0.099,0.211 -0.171,0.111 -0.064,0.206 -0.22,0.473 -0.021,0.072 -0.007,0.095 -0.326,0.459 -0.319,0.244 -0.055,0.053 -0.185,0.289 -0.231,0.289 0.026,0.157 -0.123,0.022 -0.189,0.162 -0.047,0.022 -0.298,0.34 -0.028,0.232 0.102,0.056 -0.053,0.046 -0.069,0.166 0.014,0.209 0.105,0.131 c 0.007,0.032 0.022,0.066 0.035,0.099 l -0.284,0.291 -0.162,0.122 -0.083,0.214 0.18,0.161 0.222,0.066 0.215,0.536 0.007,0.018 0.229,0.447 -0.145,0.923 0.02,0.119 0.139,0.292 -0.111,0.22 -0.132,0.089 -0.097,0.215 c 0.125,0.959 0.222,0.536 0.589,1.102 l 0.049,0.042 0.181,0.286 0.027,0.131 0.222,0.136 0.346,0.203 0.055,0.268 0.028,0.059 0.271,0.441 0.111,0.096 0.499,0.226 0.201,0.346 0.194,0.124 0.554,0.066 1.098,0.531 0.226,0.333 v 0.208 l 0.146,0.625 0.042,0.066 0.221,0.262 0.042,0.173 0.104,0.131 0.209,0.132 0.228,0.202 0.11,0.053 0.804,0.22 0.68,0.989 0.159,0.108 0.027,-0.005 -0.311,0.314 -0.055,0.078 -0.097,0.238 -0.105,-0.006 -0.152,0.036 c -0.554,0.309 -0.88,0.762 -0.908,1.388 v 0.071 l 0.132,0.405 0.197,0.148 0.394,0.635 -0.016,0.057 0.233,0.932 -0.205,0.628 0.34,0.352 0.473,0.054 c -0.306,0.533 -0.522,1.082 -0.522,1.65 0,0.993 0.348,1.822 1.032,2.462 0.504,0.471 1.137,0.771 1.792,0.972 -0.31,0.203 -0.583,0.415 -0.779,0.626 -0.604,-0.278 -1.245,-0.401 -1.85,-0.396 -1.71,0.063 -2.641,0.966 -3.075,1.783 l -0.509,-0.015 c -1.206,0.091 -1.794,0.546 -2.093,0.911 -0.136,0.166 -0.237,0.336 -0.308,0.504 l -0.091,-0.009 c -2.368,0.039 -3.342,1.757 -3.545,2.658 l -0.085,0.375 -0.186,-0.18 -0.169,-0.07 -0.081,-0.175 -0.873,-0.572 -0.042,-0.279 0.208,-0.173 0.076,-0.203 -0.166,-0.16 -0.091,-0.032 -0.029,-0.113 0.037,-0.141 -0.196,-0.119 -0.054,-0.203 -0.173,-0.113 -0.035,-0.06 -0.021,-0.023 -0.277,-0.352 -0.222,-0.095 -0.207,0.107 -0.07,0.101 0.021,0.25 0.088,0.1 c -0.225,0.028 -0.337,0.198 -0.192,0.52 l 0.125,0.123 -0.014,0.008 -0.035,0.184 0.236,0.65 -0.028,0.119 0.035,0.172 0.18,0.096 0.125,0.012 0.019,-0.009 0.677,0.406 -0.176,-0.01 -0.27,0.185 -0.105,0.562 -0.083,-0.3 -0.042,-0.084 -0.18,-0.196 -0.208,-0.09 -0.053,0.025 -0.002,-0.025 -0.132,-0.172 -0.201,-0.09 -0.229,-0.345 -0.113,-0.356 -0.017,-0.138 0.138,0.089 0.325,-0.012 0.055,-0.274 -0.304,-0.477 -0.201,-0.113 -0.171,0.058 -0.058,-0.076 -0.264,0.018 -0.221,0.125 -0.437,0.036 -0.208,0.107 -0.007,0.209 0.305,0.524 0.05,0.034 -0.168,0.037 -0.388,-0.411 -0.257,-0.077 -0.101,0.087 c -2.448,-4.044 -3.861,-8.746 -3.857,-13.775 -0.005,-5.71 1.811,-11.006 4.903,-15.386 l 0.303,-0.362 0.021,-0.03 0.096,-0.176 c 0.906,-1.216 1.907,-2.362 3.002,-3.416 5.144,-4.944 12.214,-7.982 20.026,-7.982 0.271,0 0.538,0.013 0.807,0.02 l -0.121,0.046 c -1.143,0.298 -0.443,0.947 0.007,1.382 l 0.222,0.087 0.298,0.163 -0.318,0.447 -0.021,0.172 0.103,0.115 -0.464,0.505 -0.028,0.03 -0.2,0.317 -0.168,0.156 z"
       style="fill:#ffffff;fill-opacity:1;fill-rule:nonzero;stroke:none"
       transform="matrix(1.3333333,0,0,-1.3333333,33025.839,496.762)" />
<path
       id="path1776"
       d="M 0,0 0.475,-0.931 0.714,-1.012 0.797,-1.114 1.13,-1.084 1.324,-1.131 2.047,-1.625 1.973,-1.341 1.795,-0.905 1.733,-0.881 1.587,-0.715 1.386,0.232 1.255,0.28 1.137,0.363 0.571,1.115 0.325,1.197 0.215,1.191 l -0.562,0.393 -0.014,0.042 -0.18,0.411 -0.014,0.119 0.049,0.227 -0.395,0.53 -0.236,0.125 -0.062,0.041 -0.458,0.441 -0.291,0.227 -0.083,0.125 -0.008,0.033 -0.089,0.05 -0.25,0.28 L -2.849,4.753 -2.953,4.729 -3.008,4.604 -3.203,4.467 -3.216,4.471 -3.043,4.247 -2.995,4.116 -3.002,4.039 -2.655,3.645 -2.634,3.621 -2.26,3.05 -1.906,2.859 -1.788,2.657 -1.823,2.305 l 0.222,-0.107 0.014,-0.006 0.381,-0.208 0.117,-0.167 0.014,-0.179 0.174,-0.19 0.055,-0.173 -0.059,-0.08 0.156,-0.51 0.094,-0.363 0.059,-0.018 0.478,-0.197 z"
       style="fill:#ffffff;fill-opacity:1;fill-rule:nonzero;stroke:none"
       transform="matrix(1.3333333,0,0,-1.3333333,33049.232,480.06053)" />
<path
       id="path1777"
       d="m 0,0 -0.091,-0.112 -0.478,-0.156 -0.073,-0.138 0.211,-0.254 0.258,-0.054 0.033,0.054 0.285,0.137 -0.049,0.322 0.069,0.1 z"
       style="fill:#ffffff;fill-opacity:1;fill-rule:nonzero;stroke:none"
       transform="matrix(1.3333333,0,0,-1.3333333,33042.8,457.84107)" />
<path
       id="path1778"
       d="m 0,0 1.365,-0.596 0.749,0.423 0.007,0.024 0.256,0.62 V 0.625 L 2.117,1.166 2.01,1.495 1.878,1.626 1.525,1.787 1.355,1.953 1.345,1.966 1.344,1.965 1.331,1.978 1.282,2.031 1.448,2.198 1.497,2.281 1.556,2.484 1.663,2.662 1.567,2.948 1.187,3.166 0.963,3.341 0.721,3.389 0.629,3.307 0.402,3.473 -0.042,3.514 -0.055,3.55 l -0.063,0.083 -0.314,0.291 0.016,0.007 0.131,0.131 -0.027,0.173 -0.173,0.244 0.36,0.209 0.111,0.226 L -0.222,5.087 -0.27,5.093 -0.319,5.414 -0.527,5.599 -1.379,5.73 -1.657,5.605 -1.969,5.015 -1.976,5.003 -2.045,4.848 -2.066,4.777 -2.079,4.41 -2.384,3.377 -2.246,3.121 -1.823,2.942 -1.518,2.317 -1.435,2.228 -0.617,1.68 -0.347,1.429 -0.215,1.364 0,1.316 -0.083,0.179 Z"
       style="fill:#ffffff;fill-opacity:1;fill-rule:nonzero;stroke:none"
       transform="matrix(1.3333333,0,0,-1.3333333,33050.969,462.08)" />
<path
       id="path1779"
       d="M 0,0 -0.407,0.403 -0.774,0.105 -0.821,0.078 -0.816,0.069 -0.822,-0.175 -0.857,-0.21 l 0.25,-0.179 0.048,-0.06 0.19,-0.28 0.212,-0.03 0.478,-0.28 0.09,-0.083 0.223,-0.392 0.325,-0.037 0.215,-0.149 0.041,-0.107 0.583,0.471 0.18,0.631 0.007,0.233 0.055,0.137 0.19,0.194 L 2.125,-0.177 2.02,-0.33 1.77,-0.437 0.89,-0.359 0.425,-0.389 0.189,-0.282 Z"
       style="fill:#ffffff;fill-opacity:1;fill-rule:nonzero;stroke:none"
       transform="matrix(1.3333333,0,0,-1.3333333,33054.543,468.83587)" />
<path
       id="path1780"
       d="M 0,0 C -0.055,0.387 -0.076,0.107 -0.305,0.786 L -0.312,0.81 -0.388,1.239 -0.494,1.688 -0.555,1.727 -0.762,2.591 -0.96,2.251 -0.977,2.204 -1.012,2.144 -1.045,2.105 -1.047,2.103 v 0 L -1.068,2.079 -1.4,2.007 -1.511,2.299 -1.472,2.366 -1.733,2.496 -2.136,2.686 -2.301,2.418 V 2.365 L -2.364,2.228 -3.119,1.418 -3.188,1.37 -3.48,1.221 -3.889,0.828 -3.965,0.78 -4.54,0.518 -4.742,0.506 -4.887,0.613 -5.004,0.811 -5.163,0.527 -4.956,0.602 -4.762,0.5 l 0.457,-0.589 0.901,-0.155 0.201,-0.227 c -0.055,-0.865 -0.364,-1.83 -0.606,-2.602 L -3.903,-3.592 -3.958,-3.699 -4.214,-3.967 -4.27,-4.402 -4.353,-4.539 -4.672,-4.783 -5.226,-5.563 V -5.855 L -5.282,-5.98 -5.906,-6.713 -6.349,-7.207 -6.606,-7.654 -6.689,-7.731 -6.95,-7.9 l 0.025,-0.034 -0.048,-0.131 -0.021,-0.018 -0.028,-0.024 -0.083,-0.077 -0.374,-0.339 -0.028,-0.024 -0.426,-0.274 -0.288,-0.465 -0.757,-0.424 0.021,-0.132 0.826,0.234 0.222,0.072 0.367,0.411 0.076,0.059 0.257,0.138 0.125,0.155 0.07,0.053 0.255,0.155 0.32,0.316 0.263,0.393 0.138,0.095 0.194,0.059 0.257,-0.041 0.083,-0.215 -0.076,-0.291 h -0.003 l -0.008,-0.099 0.066,-0.003 0.021,-0.297 -0.159,-0.161 -0.021,-0.34 -0.014,-0.071 -0.416,-0.924 -0.388,-0.976 -0.014,-0.024 -0.526,-1.001 -0.014,-0.024 -0.95,-1.316 -0.014,-0.03 -0.811,-0.822 -1.257,-1.434 0.002,-10e-4 -0.381,-0.519 -0.104,-0.083 -0.111,-0.049 -0.048,-0.112 -0.34,-0.268 -0.063,-0.167 -0.096,-0.113 -0.056,-0.03 -0.138,-0.226 -0.014,-0.024 -0.478,-0.625 0.013,-0.006 0.139,-0.143 -0.035,-0.179 -0.166,-0.202 0.163,-0.307 0.1,-0.057 -0.034,-0.238 -0.18,-0.184 -0.049,-0.227 -0.014,-0.035 c 1.083,0.717 2.115,1.504 3.084,2.357 l 0.146,0.18 0.062,0.011 c 0.241,0.216 0.482,0.432 0.714,0.656 4.306,4.138 7.238,9.615 8.078,15.732 z"
       style="fill:#ffffff;fill-opacity:1;fill-rule:nonzero;stroke:none"
       transform="matrix(1.3333333,0,0,-1.3333333,33064.454,469.68053)" />
<path
       id="path1781"
       d="m 0,0 -0.18,0.298 -0.367,0.292 -0.049,0.297 -0.242,-1.435 0.187,-0.304 0.187,-0.25 C 0.388,-1 0.132,-0.482 0,0"
       style="fill:#ffffff;fill-opacity:1;fill-rule:nonzero;stroke:none"
       transform="matrix(1.3333333,0,0,-1.3333333,33053.751,454.02707)" />
<path
       id="path1782"
       d="M 0,0 0.14,-0.083 0.159,-0.051 0.367,0.068 0.54,0.08 1.053,0.295 1.774,0.926 1.92,0.992 2.093,1.016 2.571,1.218 2.869,1.17 2.973,1.069 3.168,1.111 3.216,1.123 4.762,1.218 4.789,1.224 4.997,1.212 5.316,1.617 5.335,1.746 C 5.12,2.194 4.976,2.118 4.367,2.308 L 4.325,2.326 3.763,2.618 H 3.59 L 3.493,2.636 2.822,2.866 2.752,2.797 2.53,2.773 2.46,2.624 2.342,2.511 2.121,2.421 1.865,2.177 1.838,2.17 C 1.51,1.363 0.857,0.632 0,0"
       style="fill:#ffffff;fill-opacity:1;fill-rule:nonzero;stroke:none"
       transform="matrix(1.3333333,0,0,-1.3333333,33039.103,463.14813)" />
<path
       id="path1783"
       d="M 0,0 -0.09,0.131 -0.165,0.513 -0.236,0.488 -0.465,0.543 -0.592,0.454 -0.471,0.327 -0.571,0.215 -0.27,0.25 -0.145,0.012 -0.27,-0.506 l -0.187,-0.167 -0.162,-0.04 -0.545,-0.436 -0.513,0.44 0.111,0.268 0.145,0.078 v 0.006 l 0.15,0.2 -0.164,0.008 -0.429,0.215 -0.418,0.063 0.023,-0.153 -0.139,-0.321 -0.465,-0.143 -0.339,-0.007 -0.194,0.012 -0.205,0.181 -0.17,-0.079 -0.36,0.012 -0.228,0.149 0.075,0.244 0.088,0.063 -0.344,0.163 -0.109,0.254 -0.3,0.062 -0.179,0.17 c 0.059,-0.318 0.113,-0.638 0.105,-1.003 -0.012,-0.96 -0.458,-1.817 -1.307,-2.574 l 0.355,-0.078 0.166,-0.131 0.077,-0.154 0.201,0.011 0.096,-0.037 10e-4,0.002 0.686,-0.197 0.229,0.084 0.131,0.017 0.25,-0.017 1.428,-0.125 0.326,0.297 0.152,0.066 0.083,0.012 0.306,0.274 0.138,0.065 0.444,0.078 1.046,0.178 0.153,0.614 0.004,-0.001 C 0,-1.264 0.16,-0.882 0.153,-0.548 l -0.102,0.51 z"
       style="fill:#ffffff;fill-opacity:1;fill-rule:nonzero;stroke:none"
       transform="matrix(1.3333333,0,0,-1.3333333,33044.398,467.3216)" />
<path
       id="path1784"
       d="M 0,0 C 0,-0.07 0.013,-0.136 0.023,-0.203 L 0.021,0.017 C 0.015,0.012 0.005,0.005 0,0"
       style="fill:#ffffff;fill-opacity:1;fill-rule:nonzero;stroke:none"
       transform="matrix(1.3333333,0,0,-1.3333333,33025.578,466.95307)" />
<path
       id="path1785"
       d="m 0,0 0.12,0.207 0.091,0.038 0.013,0.06 -0.173,0.056 -0.159,0.263 v 0.001 l -0.049,0.034 -0.076,0.417 0.012,0.02 -0.005,0.004 -0.111,0.316 -0.047,0.01 C -0.424,1.406 -0.456,1.38 -0.497,1.361 -0.242,0.942 -0.094,0.486 0,0"
       style="fill:#ffffff;fill-opacity:1;fill-rule:nonzero;stroke:none"
       transform="matrix(1.3333333,0,0,-1.3333333,33037.555,466.29467)" />
<path
       id="path1786"
       d="m 0,0 -0.187,-0.089 -0.202,0.053 -0.027,0.012 -1.393,-0.148 0.055,-0.042 0.194,-0.227 0.513,-0.101 0.132,0.072 0.277,0.012 0.451,-0.239 0.443,0.274 0.073,0.022 C 0.296,-0.235 0.234,-0.085 0.229,0.096 0.227,0.172 0.255,0.242 0.257,0.317 L 0.249,0.316 Z"
       style="fill:#ffffff;fill-opacity:1;fill-rule:nonzero;stroke:none"
       transform="matrix(1.3333333,0,0,-1.3333333,33017.836,468.0208)" />
<path
       id="path1787"
       d="m 0,0 -0.098,-0.044 0.068,0.018 z"
       style="fill:#ffffff;fill-opacity:1;fill-rule:nonzero;stroke:none"
       transform="matrix(1.3333333,0,0,-1.3333333,33043.311,467.31107)" />
<path
       id="path1788"
       d="M 0,0 C -0.002,0.011 -0.002,0.023 -0.004,0.034 L -0.015,0.014 Z"
       style="fill:#ffffff;fill-opacity:1;fill-rule:nonzero;stroke:none"
       transform="matrix(1.3333333,0,0,-1.3333333,33037.56,466.34027)" />
<path
       id="path1789"
       d="m 0,0 -0.166,-0.095 0.153,0.077 z"
       style="fill:#ffffff;fill-opacity:1;fill-rule:nonzero;stroke:none"
       transform="matrix(1.3333333,0,0,-1.3333333,33009.138,433.79933)" />
<path
       id="path1790"
       d="m 0,0 -0.09,-0.339 0.263,0.47 z"
       style="fill:#ffffff;fill-opacity:1;fill-rule:nonzero;stroke:none"
       transform="matrix(1.3333333,0,0,-1.3333333,33057.365,467.6552)" />
<path
       id="path1791"
       d="m 0,0 c 0.472,-0.232 0.86,-0.506 0.86,-1.108 0,-1.257 -1.726,-1.983 -2.905,-2.281 -1.164,-0.292 -5.233,-1.656 -5.233,-4.051 0,-1.125 0.894,-1.953 1.913,-2.525 0.818,0.733 1.851,1.018 2.683,1.257 0,0 -1.297,0.375 -1.297,1.411 0,0.441 0.243,1.108 2.662,1.728 2.419,0.631 5.691,1.858 5.719,4.056 C 4.423,-0.506 4.173,0.155 3.674,0.78 2.537,0.232 1.345,0.077 0,0"
       style="fill:#ffffff;fill-opacity:1;fill-rule:nonzero;stroke:none"
       transform="matrix(1.3333333,0,0,-1.3333333,33030.331,465.84467)" />
<path
       id="path1792"
       d="m 0,0 c -0.825,-0.214 -1.352,-0.405 -1.761,-0.596 l 0.021,-2.102 1.449,0.488 0.006,1.996 c 0,0 1.491,-0.584 1.491,-1.317 0,-0.738 -1.13,-1.227 -2.544,-1.632 -1.407,-0.405 -3.778,-1.072 -3.792,-3.49 0,-0.697 0.465,-1.221 1.047,-1.603 0.444,0.483 1.213,0.852 1.879,1.132 l -0.354,0.763 c -0.007,0.756 1.789,1.161 3.078,1.56 1.282,0.405 3.535,0.935 3.583,3.306 C 4.124,-0.482 3.452,0.316 2.752,0.911 1.851,0.512 0.866,0.22 0,0"
       style="fill:#ffffff;fill-opacity:1;fill-rule:nonzero;stroke:none"
       transform="matrix(1.3333333,0,0,-1.3333333,33029.176,473.82627)" />
<path
       id="path1793"
       d="M 0,0 -0.679,-0.328 C -0.991,-0.471 -1.643,-0.739 -2.378,-1.007 L -2.669,-1.12 v -0.774 l 0.319,-2.716 0.388,-0.358 0.382,0.358 0.283,2.728 v 1.227 l -0.006,0.012 C 0.076,-1.168 1.858,-1.757 1.962,-1.555 2.073,-1.358 1.005,-0.625 0,0"
       style="fill:#ffffff;fill-opacity:1;fill-rule:nonzero;stroke:none"
       transform="matrix(1.3333333,0,0,-1.3333333,33030.479,489.99573)" />
<path
       id="path1794"
       d="M 0,0 -0.312,0.881 C -1.026,0.101 -3.48,-0.286 -4.11,-0.458 v -0.947 l 1.372,0.929 v 0.256 l 0.284,-0.453 c 0,-0.304 -0.554,-0.721 -1.511,-1.233 l -0.18,-0.107 c -1.054,-0.59 -3.383,-1.835 -3.223,-2.109 0.09,-0.196 1.102,0.328 2.426,0.828 0.735,0.28 1.961,0.745 2.273,0.899 C -1.775,-2.001 -0.042,-1.394 0,0"
       style="fill:#ffffff;fill-opacity:1;fill-rule:nonzero;stroke:none"
       transform="matrix(1.3333333,0,0,-1.3333333,33032.392,486.77147)" />
<path
       id="path1795"
       d="m 0,0 c -2.482,0.304 -4.547,1.03 -4.63,1.727 -0.07,0.882 0.11,0.816 0.894,0.816 0.811,0 0.963,-0.959 2.419,-0.959 1.455,0 1.816,0.37 1.858,0.804 0.083,0.816 -0.645,2.365 -2.586,2.365 -1.206,0 -5.157,0.066 -5.157,-2.883 0,-1.495 1.532,-2.871 3.743,-3.741 C -2.614,-0.947 -1.352,-0.31 0,0"
       style="fill:#ffffff;fill-opacity:1;fill-rule:nonzero;stroke:none"
       transform="matrix(1.3333333,0,0,-1.3333333,33024.74,461.33347)" />
<path
       id="path1796"
       d="m 0,0 c -1.948,0 -2.669,-1.549 -2.586,-2.353 0.042,-0.453 0.409,-0.81 1.858,-0.81 1.463,0 1.608,0.953 2.405,0.953 0.811,0 0.978,0.077 0.902,-0.81 -0.091,-0.882 -3.716,-1.918 -6.856,-1.918 -3.14,0 -6.453,-1.835 -6.37,-4.789 0.034,-1.262 1.109,-2.061 2.28,-2.71 1.054,0.727 2.274,1.191 3.036,1.412 -0.52,0.173 -1.761,0.619 -1.761,1.894 0,0.994 0.881,1.4 4.582,1.62 3.716,0.226 7.66,2.359 7.66,4.64 C 5.15,0.077 1.206,0 0,0"
       style="fill:#ffffff;fill-opacity:1;fill-rule:nonzero;stroke:none"
       transform="matrix(1.3333333,0,0,-1.3333333,33033.529,455.0992)" />
<path
       id="path1797"
       d="M 0,0 0.09,-12.378 1.691,-12.294 1.774,0 h 0.042 c 0.811,0.334 1.38,1.084 1.38,1.96 0,1.185 -1.054,2.138 -2.358,2.138 -1.296,0 -2.349,-0.953 -2.349,-2.138 C -1.511,1.054 -0.866,0.316 0,0"
       style="fill:#ffffff;fill-opacity:1;fill-rule:nonzero;stroke:none"
       transform="matrix(1.3333333,0,0,-1.3333333,33026.634,444.44133)" />
<path
       id="path1798"
       d="M 0,0 -0.652,-0.03 0.956,0.03 Z"
       style="fill:#ffffff;fill-opacity:1;fill-rule:nonzero;stroke:none"
       transform="matrix(1.3333333,0,0,-1.3333333,33027.623,460.9048)" />
<path
       id="path1799"
       d="m 0,0 0.021,2.317 -1.553,-0.179 0.021,-2.632 0.277,0.071 z"
       style="fill:#ffffff;fill-opacity:1;fill-rule:nonzero;stroke:none"
       transform="matrix(1.3333333,0,0,-1.3333333,33028.834,469.05307)" />
<path
       id="path1800"
       d="M 0,0 C 1.601,0 3.32,0.31 3.452,0.423 L 3.417,5.76 3.078,5.742 1.954,6.481 c -0.249,0.44 -0.09,1.101 -1.788,1.101 -1.677,0 -1.816,-0.97 -6.238,-1.238 -4.104,-0.263 -8.124,-0.233 -8.124,-0.233 0,0 0.422,-1.87 2.447,-1.912 l 1.046,0.107 c 0,0 -0.249,-1.364 1.525,-1.507 l 1.248,0.036 c 0,0 0.284,-1.727 2.398,-1.805 0.825,-0.024 1.553,0.328 2.114,0.745 C -3.418,1.775 -2.724,0 0,0"
       style="fill:#ffffff;fill-opacity:1;fill-rule:nonzero;stroke:none"
       transform="matrix(1.3333333,0,0,-1.3333333,33021.468,454.06667)" />
<path
       id="path1801"
       d="m 0,0 c -4.436,0.297 -4.561,1.372 -6.252,1.372 -1.692,0 -1.532,-0.732 -1.775,-1.22 l -1.123,-0.818 -0.353,0.02 -0.056,-5.871 c 0.153,-0.132 1.886,-0.508 3.473,-0.508 2.738,0 3.424,1.966 3.424,1.966 0.569,-0.462 1.283,-0.851 2.135,-0.825 2.101,0.086 2.371,1.999 2.371,1.999 l 1.261,-0.04 c 1.761,0.159 1.525,1.669 1.525,1.669 l 1.054,-0.119 c 2.017,0.046 2.454,2.118 2.454,2.118 0,0 -4.027,-0.033 -8.138,0.257"
       style="fill:#ffffff;fill-opacity:1;fill-rule:nonzero;stroke:none"
       transform="matrix(1.3333333,0,0,-1.3333333,33042.281,445.2432)" />
<path
       id="path1802"
       d="M 0,0 C -0.001,0.001 -0.002,0.002 -0.003,0.002 L -0.007,0 Z"
       style="fill:#ffffff;fill-opacity:1;fill-rule:nonzero;stroke:none"
       transform="matrix(1.3333333,0,0,-1.3333333,33025.534,489.43973)" />
<path
       id="path1803"
       d="m 0,0 c 0,-0.821 0.76,-1.493 1.542,-1.999 l 0.517,0.349 v 1.299 C 2.079,0.185 3.113,0.25 3.951,0.464 4.755,0.667 6.932,1.066 6.876,3.502 6.869,4.068 6.751,4.539 6.53,4.926 L 5.108,4.461 C 4.242,4.193 3.188,3.931 2.558,3.574 l 0.007,-0.804 1.4,0.679 0.007,0.607 c 0,0 0.575,-0.113 0.541,-0.738 L 3.424,2.52 C 2.967,2.335 0,1.4 0,0"
       style="fill:#ffffff;fill-opacity:1;fill-rule:nonzero;stroke:none"
       transform="matrix(1.3333333,0,0,-1.3333333,33023.473,486.7712)" />
<path
       id="path1804"
       d="m 0,0 c -5.619,-5.329 -13.478,-8.678 -22.156,-8.678 -8.688,0 -16.537,3.349 -22.156,8.678 -5.64,5.339 -9.082,12.669 -9.082,20.746 0,8.076 3.442,15.417 9.082,20.746 5.619,5.339 13.468,8.688 22.156,8.678 C -13.478,50.18 -5.619,46.831 0,41.492 5.619,36.163 9.072,28.822 9.072,20.746 9.072,12.669 5.619,5.339 0,0 m -21.638,81.315 -65.7,-93.352 H 43.016 Z"
       style="fill:#ffffff;fill-opacity:1;fill-rule:nonzero;stroke:none"
       transform="matrix(1.3333333,0,0,-1.3333333,33056.469,493.16787)" />
<path
       id="path1805"
       d="m 0,0 c -0.129,0.022 -0.334,0.022 -0.566,0.022 -1.567,0 -2.389,-0.508 -2.389,-1.237 0,-0.288 0.179,-0.774 0.54,-1.504 l 5.731,-12.822 4.832,11.186 c 0.591,1.371 0.901,2.344 0.901,2.94 0,0.907 -0.901,1.371 -2.673,1.415 v 0.818 h 7.042 V 0 C 12.261,-0.199 11.901,-0.773 11.438,-1.657 11.13,-2.255 10.642,-3.315 9.999,-4.797 L 4.524,-17.442 v -7.825 c 0,-1.57 0.206,-2.609 0.643,-3.162 0.437,-0.552 1.413,-0.839 2.981,-0.839 0.361,0 0.643,0 0.849,0.022 v -0.818 H -7.325 v 0.818 c 0.231,-0.022 0.564,-0.022 1.003,-0.022 2.698,0 3.572,0.729 3.572,3.05 v 7.516 l -6.4,14.038 c -1.234,2.675 -1.877,3.891 -2.494,4.244 -0.334,0.177 -0.874,0.31 -1.62,0.42 V 0.818 H 0 Z"
       style="fill:#ffffff;fill-opacity:1;fill-rule:nonzero;stroke:none"
       transform="matrix(1.3333333,0,0,-1.3333333,33150.273,343.8648)" />
<path
       id="path1806"
       d="m 0,0 h -2.725 v -12.667 c 3.983,0.133 6.142,2.233 6.142,7.096 H 4.37 V -21.289 H 3.417 c 0,4.577 -2.055,6.898 -6.142,6.942 v -9.506 c 0.052,-3.227 0.386,-3.581 3.084,-3.669 6.761,0.044 9.434,2.011 11.748,7.825 h 0.95 l -1.748,-9.505 h -25.035 v 0.818 c 0.23,0 0.359,-0.022 0.488,-0.022 2.365,0 3.239,0.95 3.239,3.138 v 22.969 c 0,2.454 -0.874,3.161 -3.727,3.161 V 1.68 H 10.537 V -7.162 H 9.587 C 9.305,-5.062 8.533,-3.36 7.223,-2.011 5.912,-0.663 3.495,0 0,0"
       style="fill:#ffffff;fill-opacity:1;fill-rule:nonzero;stroke:none"
       transform="matrix(1.3333333,0,0,-1.3333333,33189.994,345.014)" />
<path
       id="path1807"
       d="m 0,0 c -1.131,1.039 -3.522,1.459 -5.116,1.459 h -1.413 v -24.538 c 0,-0.818 0.078,-1.437 0.205,-1.857 0.232,-0.862 0.875,-1.127 2.107,-1.127 1.903,0 3.445,0.486 4.628,1.481 2.647,2.343 3.008,9.063 3.008,12.181 C 3.419,-8.909 3.058,-2.63 0,0 m 11.515,-12.269 c 0,-5.062 -1.492,-10.191 -6.528,-13.263 -2.391,-1.482 -5.553,-2.211 -9.46,-2.211 h -12.749 v 0.818 c 2.468,0 3.419,0.928 3.419,3.116 v 23.058 c 0,2.21 -0.798,3.072 -3.419,3.072 v 0.818 h 13.674 c 10.591,0 15.063,-7.162 15.063,-15.408"
       style="fill:#ffffff;fill-opacity:1;fill-rule:nonzero;stroke:none"
       transform="matrix(1.3333333,0,0,-1.3333333,33234.443,346.9596)" />
<path
       id="path1808"
       d="M 0,0 C 0,1.503 1.362,2.675 3.11,2.675 4.858,2.675 6.219,1.503 6.219,0 6.219,-1.503 4.832,-2.652 3.11,-2.652 1.387,-2.652 0,-1.503 0,0 m -3.728,-37.382 v 0.819 c 2.262,0 3.162,0.928 3.162,3.072 v 23.102 c 0,2.011 -0.668,3.072 -3.162,3.072 v 0.818 H 9.948 v -0.818 c -2.237,0 -3.266,-0.884 -3.266,-2.896 v -23.234 c 0,-2.188 0.797,-3.116 3.266,-3.116 v -0.819 z"
       style="fill:#ffffff;fill-opacity:1;fill-rule:nonzero;stroke:none"
       transform="matrix(1.3333333,0,0,-1.3333333,33259.292,334.10853)" />
<path
       id="path1809"
       d="M 0,0 V -0.818 H -15.165 V 0 c 0.155,-0.022 0.359,-0.022 0.643,-0.022 2.467,0 3.316,0.928 3.316,3.051 v 25.355 c -5.707,0 -7.815,-1.127 -8.432,-6.477 h -0.95 v 8.157 H 5.423 V 21.907 H 4.473 C 3.753,26.859 2.03,28.34 -3.959,28.384 V 3.161 c 0,-2.233 0.72,-3.183 3.419,-3.183 C -0.359,-0.022 -0.23,0 0,0"
       style="fill:#ffffff;fill-opacity:1;fill-rule:nonzero;stroke:none"
       transform="matrix(1.3333333,0,0,-1.3333333,33306.816,382.85973)" />
<path
       id="path1810"
       d="m 0,0 h -2.725 v -12.667 c 3.983,0.133 6.142,2.233 6.142,7.096 H 4.37 V -21.289 H 3.417 c 0,4.577 -2.055,6.898 -6.142,6.942 v -9.506 c 0.052,-3.227 0.386,-3.581 3.084,-3.669 6.761,0.044 9.434,2.011 11.748,7.825 h 0.95 l -1.748,-9.505 h -25.035 v 0.818 c 0.23,0 0.359,-0.022 0.488,-0.022 2.365,0 3.239,0.95 3.239,3.138 v 22.969 c 0,2.454 -0.874,3.161 -3.727,3.161 V 1.68 H 10.537 V -7.162 H 9.587 C 9.305,-5.062 8.533,-3.36 7.223,-2.011 5.912,-0.663 3.495,0 0,0"
       style="fill:#ffffff;fill-opacity:1;fill-rule:nonzero;stroke:none"
       transform="matrix(1.3333333,0,0,-1.3333333,33336.29,345.014)" />
<path
       id="path1811"
       d="m 0,0 h -1.826 v -13.485 h 2.211 c 5.038,0 5.886,3.338 5.886,6.875 C 6.271,-1.989 4.421,0 0,0 m 2.056,-28.384 v -0.818 h -14.524 v 0.818 c 2.598,0 3.368,0.972 3.368,3.116 V -2.21 c 0,2.033 -0.822,3.072 -3.368,3.072 V 1.68 h 12.21 c 3.6,0 6.221,-0.199 7.866,-0.575 1.619,-0.398 2.929,-1.016 3.933,-1.879 1.721,-1.481 2.826,-3.691 2.826,-5.791 0,-1.968 -0.744,-3.98 -2.724,-5.726 -1.979,-1.768 -5.295,-2.874 -10.049,-2.874 h -3.42 V -25.4 c 0,-2.1 0.746,-3.006 3.342,-3.006 0.205,0 0.308,0.022 0.54,0.022"
       style="fill:#ffffff;fill-opacity:1;fill-rule:nonzero;stroke:none"
       transform="matrix(1.3333333,0,0,-1.3333333,33375.596,345.014)" />
<path
       id="path1812"
       d="m 0,0 h -2.725 v -12.667 c 3.983,0.133 6.142,2.233 6.142,7.096 H 4.37 V -21.289 H 3.417 c 0,4.577 -2.055,6.898 -6.142,6.942 v -9.506 c 0.052,-3.227 0.386,-3.581 3.084,-3.669 6.761,0.044 9.434,2.011 11.748,7.825 h 0.95 l -1.748,-9.505 h -25.035 v 0.818 c 0.23,0 0.359,-0.022 0.488,-0.022 2.365,0 3.239,0.95 3.239,3.138 v 22.969 c 0,2.454 -0.874,3.161 -3.727,3.161 V 1.68 H 10.537 V -7.162 H 9.587 C 9.305,-5.062 8.533,-3.36 7.223,-2.011 5.912,-0.663 3.495,0 0,0"
       style="fill:#ffffff;fill-opacity:1;fill-rule:nonzero;stroke:none"
       transform="matrix(1.3333333,0,0,-1.3333333,33417.713,345.014)" />
<path
       id="path1813"
       d="M 0,0 V 0.818 H 7.969 V 0 C 5.604,-0.022 4.858,-0.972 4.858,-3.116 v -18.703 c 0,-5.946 -3.856,-8.931 -11.591,-8.931 -3.086,0 -5.81,0.619 -8.15,1.857 -2.338,1.238 -3.52,3.449 -3.52,6.61 v 19.211 c 0,2.033 -0.721,2.962 -3.008,3.072 V 0.818 H -8.148 L -8.096,0 c -2.159,-0.066 -3.059,-0.884 -3.059,-2.94 v -19.254 c 0,-3.958 1.568,-6.478 6.529,-6.478 2.493,0 4.421,0.597 5.783,1.769 1.157,0.994 1.748,3.272 1.748,5.903 v 16.38 c 0,1.879 -0.18,3.117 -0.566,3.714 C 1.954,-0.309 1.183,-0.022 0,0"
       style="fill:#ffffff;fill-opacity:1;fill-rule:nonzero;stroke:none"
       transform="matrix(1.3333333,0,0,-1.3333333,33485.932,343.98267)" />
<path
       id="path1814"
       d="M 0,0 V 0.818 H 8.483 V 0 C 6.247,0 5.372,-0.663 5.372,-2.807 V -30.462 H 4.421 l -19.689,24.67 h -0.103 v -20.293 c 0,-2.211 0.926,-3.161 3.522,-3.161 v -0.818 h -9.049 v 0.818 c 2.572,0 3.574,0.729 3.574,2.984 v 23.035 l -2.21,2.542 C -19.895,-0.221 -20.358,0 -20.898,0 v 0.818 h 8.638 L 3.213,-18.569 H 3.316 V -3.028 C 3.316,-0.884 2.494,0 0,0"
       style="fill:#ffffff;fill-opacity:1;fill-rule:nonzero;stroke:none"
       transform="matrix(1.3333333,0,0,-1.3333333,33527.095,343.8408)" />
<path
       id="path1815"
       d="m 0,0 h 13.676 v -0.818 c -2.236,0 -3.266,-0.884 -3.266,-2.896 v -23.234 c 0,-2.188 0.798,-3.116 3.266,-3.116 v -0.819 H 0 v 0.819 c 2.262,0 3.163,0.928 3.163,3.072 V -3.89 c 0,2.011 -0.669,3.072 -3.163,3.072 z"
       style="fill:#ffffff;fill-opacity:1;fill-rule:nonzero;stroke:none"
       transform="matrix(1.3333333,0,0,-1.3333333,33542.332,342.77387)" />
<path
       id="path1816"
       d="M 0,0 H 7.378 V -0.818 C 5.784,-1.039 5.116,-1.547 3.959,-4.62 l -9.845,-27.125 h -0.95 l -9.46,27.655 c -0.514,1.592 -1.028,2.918 -3.111,3.272 V 0 h 12.571 v -0.818 c -1.981,0 -2.623,-0.354 -2.623,-1.26 0,-0.42 0.18,-1.149 0.514,-2.144 l 5.321,-15.607 h 0.102 l 5.116,14.125 c 0.513,1.327 0.9,2.786 0.9,3.56 0,0.972 -0.72,1.326 -2.494,1.326 z"
       style="fill:#ffffff;fill-opacity:1;fill-rule:nonzero;stroke:none"
       transform="matrix(1.3333333,0,0,-1.3333333,33591.702,342.77387)" />
<path
       id="path1817"
       d="m 0,0 h -2.725 v -12.667 c 3.983,0.133 6.142,2.233 6.142,7.096 H 4.37 V -21.289 H 3.417 c 0,4.577 -2.055,6.898 -6.142,6.942 v -9.506 c 0.052,-3.227 0.386,-3.581 3.084,-3.669 6.761,0.044 9.434,2.011 11.748,7.825 h 0.95 l -1.748,-9.505 h -25.035 v 0.818 c 0.23,0 0.359,-0.022 0.488,-0.022 2.365,0 3.239,0.95 3.239,3.138 v 22.969 c 0,2.454 -0.874,3.161 -3.727,3.161 V 1.68 H 10.537 V -7.162 H 9.587 C 9.305,-5.062 8.533,-3.36 7.223,-2.011 5.912,-0.663 3.495,0 0,0"
       style="fill:#ffffff;fill-opacity:1;fill-rule:nonzero;stroke:none"
       transform="matrix(1.3333333,0,0,-1.3333333,33623.736,345.014)" />
<path
       id="path1818"
       d="M 0,0 C 0,4.509 -1.544,6.477 -6.993,6.477 H -7.634 V -6.964 h 1.258 C -1.08,-6.964 0,-4.023 0,0 m -6.324,-8.334 h -1.31 v -10.501 c 0,-2.52 0.925,-3.072 3.572,-3.072 v -0.819 h -14.266 v 0.819 c 2.596,0 3.445,0.906 3.445,3.028 V 4.267 c 0,2.143 -0.849,3.072 -3.445,3.072 V 8.157 H -4.217 C 4.215,8.201 7.634,4.399 7.582,-0.265 7.582,-4.244 5.191,-7.03 1.105,-8.002 l 5.912,-10.524 c 1.593,-2.807 2.21,-3.381 3.984,-3.381 v -0.819 H 1.85 Z"
       style="fill:#ffffff;fill-opacity:1;fill-rule:nonzero;stroke:none"
       transform="matrix(1.3333333,0,0,-1.3333333,33669.335,353.64987)" />
<path
       id="path1819"
       d="m 0,0 c -2.802,0 -5.296,-2.056 -5.193,-4.532 0,-2.453 2.082,-3.692 4.267,-4.819 1.208,-0.641 2.339,-1.194 3.393,-1.702 1.054,-0.509 2.056,-1.017 3.059,-1.569 3.65,-2.079 5.706,-4.798 5.706,-8.71 0.129,-5.13 -4.344,-9.285 -9.896,-9.285 -2.364,0 -3.907,0.508 -6.067,1.216 -1.206,0.397 -1.978,0.596 -2.337,0.596 -0.953,0 -1.594,-0.596 -1.903,-1.812 H -9.87 v 11.451 h 0.95 c 0.848,-5.703 4.935,-9.838 9.587,-9.771 3.368,0 5.373,2.453 5.373,5.173 0,0.862 -0.128,1.547 -0.386,2.1 -0.873,1.636 -2.929,2.763 -4.626,3.669 -1.516,0.774 -3.008,1.548 -4.421,2.3 -3.907,2.078 -6.529,4.509 -6.529,8.753 0,4.687 3.367,8.622 9.099,8.622 1.105,0 2.031,-0.111 2.802,-0.332 C 2.725,1.105 3.624,0.774 4.677,0.354 5.705,-0.067 6.4,-0.288 6.759,-0.288 c 1.004,0 1.518,0.553 1.748,1.968 H 9.458 L 9.767,-8.378 H 8.817 C 8.019,-4.465 5.243,0 0,0"
       style="fill:#ffffff;fill-opacity:1;fill-rule:nonzero;stroke:none"
       transform="matrix(1.3333333,0,0,-1.3333333,33701.737,344.64547)" />
<path
       id="path1820"
       d="m 0,0 h 13.676 v -0.818 c -2.236,0 -3.266,-0.884 -3.266,-2.896 v -23.234 c 0,-2.188 0.798,-3.116 3.266,-3.116 v -0.819 H 0 v 0.819 c 2.262,0 3.163,0.928 3.163,3.072 V -3.89 c 0,2.011 -0.669,3.072 -3.163,3.072 z"
       style="fill:#ffffff;fill-opacity:1;fill-rule:nonzero;stroke:none"
       transform="matrix(1.3333333,0,0,-1.3333333,33722.624,342.77387)" />
<path
       id="path1821"
       d="M 0,0 V -0.818 H -15.165 V 0 c 0.155,-0.022 0.36,-0.022 0.643,-0.022 2.467,0 3.316,0.928 3.316,3.051 v 25.355 c -5.707,0 -7.815,-1.127 -8.432,-6.477 h -0.95 v 8.157 H 5.423 V 21.907 H 4.473 C 3.753,26.859 2.03,28.34 -3.959,28.384 V 3.161 c 0,-2.233 0.72,-3.183 3.419,-3.183 C -0.359,-0.022 -0.23,0 0,0"
       style="fill:#ffffff;fill-opacity:1;fill-rule:nonzero;stroke:none"
       transform="matrix(1.3333333,0,0,-1.3333333,33773.609,382.85973)" />
<path
       id="path1822"
       d="m 0,0 c -0.129,0.022 -0.334,0.022 -0.566,0.022 -1.567,0 -2.389,-0.508 -2.389,-1.237 0,-0.288 0.179,-0.774 0.54,-1.504 l 5.731,-12.822 4.832,11.186 c 0.591,1.371 0.901,2.344 0.901,2.94 0,0.907 -0.901,1.371 -2.673,1.415 v 0.818 h 7.042 V 0 C 12.261,-0.199 11.901,-0.773 11.438,-1.657 11.13,-2.255 10.642,-3.315 9.999,-4.797 L 4.524,-17.442 v -7.825 c 0,-1.57 0.206,-2.609 0.643,-3.162 0.437,-0.552 1.413,-0.839 2.981,-0.839 0.361,0 0.643,0 0.849,0.022 v -0.818 H -7.325 v 0.818 c 0.231,-0.022 0.564,-0.022 1.002,-0.022 2.699,0 3.573,0.729 3.573,3.05 v 7.516 l -6.4,14.038 c -1.234,2.675 -1.877,3.891 -2.494,4.244 -0.334,0.177 -0.874,0.31 -1.62,0.42 V 0.818 H 0 Z"
       style="fill:#ffffff;fill-opacity:1;fill-rule:nonzero;stroke:none"
       transform="matrix(1.3333333,0,0,-1.3333333,33803.477,343.8648)" />
<path
       id="path1823"
       d="m 0,0 c -2.493,0 -3.417,-0.84 -3.417,-2.896 v -10.28 H 7.146 V -3.117 C 7.146,-0.863 6.427,0 3.728,0 v 0.818 h 14.06 V 0 C 15.397,0 14.42,-0.796 14.42,-2.94 v -23.057 c 0,-2.189 0.669,-3.25 3.368,-3.25 v -0.818 H 3.728 v 0.818 c 2.725,0 3.418,1.039 3.418,3.25 v 10.876 H -3.417 V -26.13 c 0,-2.366 0.95,-3.117 3.417,-3.117 v -0.818 h -14.111 v 0.818 c 2.494,0 3.419,0.818 3.419,2.94 V -2.94 c 0,1.967 -0.849,2.94 -3.419,2.94 V 0.818 H 0 Z"
       style="fill:#ffffff;fill-opacity:1;fill-rule:nonzero;stroke:none"
       transform="matrix(1.3333333,0,0,-1.3333333,33151.403,420.30653)" />
<path
       id="path1824"
       d="m 0,0 c 0,-4.444 0.309,-7.781 1.311,-10.412 1.003,-2.653 2.88,-4.267 5.964,-4.267 3.907,0 5.937,2.52 6.683,6.809 0.385,2.144 0.565,4.797 0.565,7.958 0,4.753 -0.386,8.025 -1.44,10.434 -1.054,2.41 -2.826,3.736 -5.808,3.736 C 1.722,14.258 0,9.329 0,0 m 14.317,-14.834 c -2.339,-1.016 -4.677,-1.525 -6.991,-1.525 -3.496,0 -7.223,1.039 -10.281,3.471 -3.085,2.431 -5.167,6.609 -5.167,12.556 0,4.001 0.823,7.229 2.468,9.661 1.619,2.432 3.624,4.133 5.963,5.128 2.338,0.995 4.626,1.481 6.888,1.481 2.52,0 4.961,-0.552 7.326,-1.635 2.364,-1.084 4.319,-2.852 5.835,-5.284 1.516,-2.453 2.288,-5.571 2.288,-9.351 0,-3.847 -0.798,-6.964 -2.391,-9.373 -1.62,-2.41 -3.598,-4.112 -5.938,-5.129"
       style="fill:#ffffff;fill-opacity:1;fill-rule:nonzero;stroke:none"
       transform="matrix(1.3333333,0,0,-1.3333333,33189.516,439.49493)" />
<path
       id="path1825"
       d="m 0,0 c -2.802,0.01 -5.303,-2.036 -5.209,-4.513 -0.009,-2.453 2.068,-3.699 4.249,-4.834 1.206,-0.646 2.335,-1.203 3.387,-1.715 1.052,-0.512 2.052,-1.025 3.054,-1.58 3.641,-2.092 5.687,-4.818 5.673,-8.731 0.11,-5.13 -4.377,-9.269 -9.93,-9.249 -2.363,0.009 -3.905,0.523 -6.061,1.238 -1.206,0.402 -1.977,0.604 -2.336,0.605 -0.952,0.004 -1.596,-0.591 -1.91,-1.805 l -0.899,0.003 0.042,11.451 0.951,-0.004 c 0.826,-5.706 4.899,-9.855 9.551,-9.805 3.367,-0.013 5.382,2.434 5.392,5.153 0.003,0.862 -0.123,1.548 -0.379,2.101 -0.867,1.639 -2.919,2.774 -4.612,3.687 -1.514,0.779 -3.003,1.558 -4.413,2.315 -3.9,2.092 -6.512,4.534 -6.497,8.778 0.017,4.687 3.399,8.609 9.13,8.588 1.105,-0.004 2.031,-0.118 2.8,-0.342 0.746,-0.246 1.643,-0.58 2.696,-1.004 1.026,-0.424 1.72,-0.648 2.079,-0.649 1.004,-0.004 1.52,0.547 1.755,1.961 L 9.464,1.646 9.737,-8.413 8.786,-8.41 C 8.003,-4.495 5.243,-0.019 0,0"
       style="fill:#ffffff;fill-opacity:1;fill-rule:nonzero;stroke:none"
       transform="matrix(1.3333333,0,0,-1.3333333,33239.45,420.4808)" />
<path
       id="path1826"
       d="m 0,0 h -1.825 v -13.485 h 2.21 c 5.038,0 5.886,3.338 5.886,6.875 C 6.271,-1.989 4.421,0 0,0 m 2.056,-28.384 v -0.818 h -14.524 v 0.818 c 2.598,0 3.368,0.972 3.368,3.116 V -2.21 c 0,2.033 -0.822,3.073 -3.368,3.073 V 1.68 h 12.21 c 3.6,0 6.221,-0.199 7.866,-0.575 1.619,-0.398 2.929,-1.016 3.933,-1.879 1.721,-1.481 2.826,-3.691 2.826,-5.791 0,-1.968 -0.744,-3.98 -2.724,-5.726 -1.979,-1.768 -5.295,-2.874 -10.049,-2.874 H -1.825 V -25.4 c 0,-2.1 0.745,-3.006 3.341,-3.006 0.205,0 0.308,0.022 0.54,0.022"
       style="fill:#ffffff;fill-opacity:1;fill-rule:nonzero;stroke:none"
       transform="matrix(1.3333333,0,0,-1.3333333,33275.958,420.97027)" />
<path
       id="path1827"
       d="m 0,0 h 13.676 v -0.818 c -2.236,0 -3.266,-0.884 -3.266,-2.896 v -23.234 c 0,-2.188 0.798,-3.116 3.266,-3.116 v -0.819 H 0 v 0.819 c 2.262,0 3.163,0.928 3.163,3.072 V -3.89 c 0,2.011 -0.669,3.072 -3.163,3.072 z"
       style="fill:#ffffff;fill-opacity:1;fill-rule:nonzero;stroke:none"
       transform="matrix(1.3333333,0,0,-1.3333333,33299.178,419.2164)" />
<path
       id="path1828"
       d="M 0,0 V -0.818 H -15.165 V 0 c 0.155,-0.022 0.359,-0.022 0.643,-0.022 2.467,0 3.316,0.928 3.316,3.05 v 25.356 c -5.707,0 -7.815,-1.127 -8.432,-6.477 h -0.95 v 8.157 H 5.423 V 21.907 H 4.473 C 3.753,26.859 2.03,28.34 -3.959,28.384 V 3.161 c 0,-2.233 0.72,-3.183 3.419,-3.183 C -0.359,-0.022 -0.23,0 0,0"
       style="fill:#ffffff;fill-opacity:1;fill-rule:nonzero;stroke:none"
       transform="matrix(1.3333333,0,0,-1.3333333,33351.673,459.30227)" />
<path
       id="path1829"
       d="M 0,0 H 7.737 L 4.009,10.721 H 3.907 Z m 9.845,-6.986 c 0,0.509 -0.155,1.238 -0.463,2.233 L 8.328,-1.68 h -8.945 l -1.054,-3.073 c -0.361,-1.017 -0.54,-1.68 -0.54,-1.968 0,-0.995 0.874,-1.48 2.648,-1.48 V -9.02 h -7.43 v 0.819 c 1.903,0.309 2.366,0.972 3.83,4.929 l 9.434,25.865 h 0.952 l 9.099,-26.174 c 0.617,-1.791 1.157,-2.985 1.619,-3.582 0.462,-0.596 1.105,-0.95 1.903,-1.038 V -9.02 H 7.223 v 0.819 c 1.953,0 2.622,0.353 2.622,1.215"
       style="fill:#ffffff;fill-opacity:1;fill-rule:nonzero;stroke:none"
       transform="matrix(1.3333333,0,0,-1.3333333,33367.885,448.36707)" />
<path
       id="path1830"
       d="m 0,0 v 0.818 c 2.957,0 4.036,0.575 4.036,3.205 V 27.08 c 0,2.056 -0.746,3.007 -3.393,3.007 -0.282,0 -0.488,0 -0.643,-0.022 v 0.818 h 15.68 v -0.818 c -0.206,0 -0.385,0.022 -0.694,0.022 -2.673,0 -3.675,-0.664 -3.675,-3.007 V 4.399 c 0,-1.835 0.488,-2.719 2.75,-2.719 2.262,0 4.086,0.221 5.475,0.685 3.701,1.194 5.191,5.262 6.144,8.224 h 0.95 L 25.319,0 Z"
       style="fill:#ffffff;fill-opacity:1;fill-rule:nonzero;stroke:none"
       transform="matrix(1.3333333,0,0,-1.3333333,33399.273,460.3932)" />
<path
       id="path1831"
       d="m 0,0 c -2.802,0 -5.296,-2.056 -5.193,-4.532 0,-2.453 2.082,-3.692 4.267,-4.819 1.208,-0.641 2.339,-1.194 3.393,-1.702 1.054,-0.509 2.056,-1.017 3.059,-1.569 3.65,-2.079 5.706,-4.798 5.706,-8.71 0.129,-5.13 -4.344,-9.285 -9.896,-9.285 -2.364,0 -3.907,0.508 -6.066,1.216 -1.207,0.397 -1.979,0.596 -2.338,0.596 -0.953,0 -1.594,-0.596 -1.903,-1.812 H -9.87 v 11.451 h 0.95 c 0.848,-5.703 4.935,-9.838 9.587,-9.771 3.368,0 5.373,2.453 5.373,5.173 0,0.862 -0.128,1.547 -0.386,2.1 -0.873,1.636 -2.929,2.763 -4.626,3.669 -1.516,0.774 -3.008,1.548 -4.421,2.3 -3.907,2.078 -6.529,4.51 -6.529,8.754 0,4.686 3.368,8.621 9.099,8.621 1.105,0 2.031,-0.111 2.802,-0.332 0.746,-0.243 1.645,-0.574 2.698,-0.994 1.028,-0.42 1.723,-0.642 2.082,-0.642 1.004,0 1.518,0.553 1.748,1.968 H 9.458 L 9.767,-8.378 H 8.817 C 8.019,-4.465 5.243,0 0,0"
       style="fill:#ffffff;fill-opacity:1;fill-rule:nonzero;stroke:none"
       transform="matrix(1.3333333,0,0,-1.3333333,33454.464,420.48387)" />
  </g>
</svg>

